<svg xmlns="http://www.w3.org/2000/svg" width="24" height="24" viewBox="0 0 24 24" fill="none">
  <path d="M21 16V8a2 2 0 0 0-1-1.73l-7-4a2 2 0 0 0-2 0l-7 4A2 2 0 0 0 3 8v8a2 2 0 0 0 1 1.73l7 4a2 2 0 0 0 2 0l7-4A2 2 0 0 0 21 16z" fill="#F5A623" opacity="0.85" stroke="#fff" stroke-width="1.2"/>
  <polyline points="3.27 6.96 12 12.01 20.73 6.96" stroke="#fff" stroke-width="1.3" stroke-linecap="round" stroke-linejoin="round"/>
  <line x1="12" y1="22.08" x2="12" y2="12" stroke="#fff" stroke-width="1.3"/>
  <path d="M7.5 4.5L16.5 9.5" stroke="#fff" stroke-width="0.8" opacity="0.5"/>
</svg>
